<?xml version="1.0" standalone="no"?><!DOCTYPE svg PUBLIC "-//W3C//DTD SVG 1.1//EN" "http://www.w3.org/Graphics/SVG/1.1/DTD/svg11.dtd"><svg width="100%" height="100%" viewBox="0 0 11 19" version="1.1" xmlns="http://www.w3.org/2000/svg" xmlns:xlink="http://www.w3.org/1999/xlink" xml:space="preserve" style="fill-rule:evenodd;clip-rule:evenodd;stroke-linejoin:round;stroke-miterlimit:1.41421;"><path d="M0,9.627l4.895,2.826l0,6.011l-0.929,0.536l-3.966,0l0,-9.373l0,0ZM11,9.627l0,9.373l-4.588,0l-0.929,-0.536l0,-6.011l5.206,-3.006l0.311,0.18ZM5.206,0l5.206,3.006l0,6.011l-5.206,3.005l-5.206,-3.005l0,-6.011l5.206,-3.006l0,0ZM6.412,0l4.588,0l0,2.29l-0.311,0.179l-4.277,-2.469ZM0,2.29l0,-2.29l3.966,0l-3.966,2.29Z" style="fill:#303030;"/></svg>