<?xml version="1.0" encoding="utf-8"?>
<!DOCTYPE svg PUBLIC "-//W3C//DTD SVG 1.1//EN" "http://www.w3.org/Graphics/SVG/1.1/DTD/svg11.dtd">
<svg version="1.1" xmlns="http://www.w3.org/2000/svg" xmlns:xlink="http://www.w3.org/1999/xlink" x="0px" y="0px" width="1010px"
	 height="427px" viewBox="0 0 1010 427" enable-background="new 0 0 1010 427" xml:space="preserve">
<g id="Shape_1_1_" enable-background="new    ">
	<g id="Shape_1">
		<g>
			<path fill-rule="evenodd" clip-rule="evenodd" fill="#CF0000" d="M233.544,390.603c-98.448,0-178.256-79.808-178.256-178.256
				S135.096,34.091,233.544,34.091c83.098,0,152.915,56.861,172.666,133.798h365.493C733.577,72.068,577.516,0.306,390.79,0.306
				C175.499,0.306,0.971,95.704,0.971,213.384c0,117.681,174.528,213.079,389.819,213.079c184.665,0,339.335-70.188,379.604-164.422
				H404.771C383.255,336.306,314.744,390.603,233.544,390.603z M232.858,332.078c68.161,0,123.418-55.256,123.418-123.418
				c0-68.161-55.257-123.417-123.418-123.417c-6.857,0-13.581,0.568-20.133,1.644c-7.983-6.445-18.135-10.312-29.194-10.312
				c-25.691,0-46.518,20.826-46.518,46.517c0,2.429,0.188,4.813,0.546,7.142c-17.568,21.322-28.12,48.642-28.12,78.426
				C109.44,276.822,164.696,332.078,232.858,332.078z M182.93,84.209c21.188,0,38.365,17.178,38.365,38.366
				s-17.177,38.365-38.365,38.365s-38.366-17.177-38.366-38.365S161.741,84.209,182.93,84.209z"/>
		</g>
	</g>
</g>
<g id="OUTLAND_CORPS">
	<text transform="matrix(1 0 0 1 402.1421 241.5059)" fill="#CF0000" font-family="'Zekton'" font-size="71.01">OUTLAND CORPS</text>
</g>
</svg>
