<svg version="1.1" id="Layer_1_xA0_Image_1_" xmlns="http://www.w3.org/2000/svg" xmlns:xlink="http://www.w3.org/1999/xlink"
	 x="0px" y="0px" width="200px" height="200px" viewBox="0 0 200 200" enable-background="new 0 0 200 200" xml:space="preserve">
<g>
	<g>
		<linearGradient id="SVGID_1_" gradientUnits="userSpaceOnUse" x1="22.2144" y1="22.3823" x2="177.4167" y2="177.5847">
			<stop  offset="0" style="stop-color:#B90000"/>
			<stop  offset="0.1439" style="stop-color:#A70000"/>
			<stop  offset="0.7277" style="stop-color:#610000"/>
			<stop  offset="1" style="stop-color:#450000"/>
		</linearGradient>
		<polygon fill="url(#SVGID_1_)" points="9.63,34.966 50.869,34.966 94.803,50.06 94.803,84.83 79.979,84.83 64.615,50.06 
			49.521,50.06 64.615,89.412 135.233,89.412 149.519,50.06 134.964,50.06 120.139,85.369 105.045,85.369 105.045,50.329 
			149.519,34.966 190,34.966 150.058,100 190,165 148.71,165 105.045,150.057 105.045,115.018 119.6,115.018 134.964,149.787 
			149.788,149.787 135.233,110.166 65.154,110.166 50.06,149.518 65.154,149.518 79.979,115.018 94.803,115.018 94.803,150.057 
			50.33,165 9.63,165 49.521,99.983 		"/>
		<polygon fill="none" stroke="#FFCC00" points="9.63,34.966 50.869,34.966 94.803,50.06 94.803,84.83 79.979,84.83 64.615,50.06 
			49.521,50.06 64.615,89.412 135.233,89.412 149.519,50.06 134.964,50.06 120.139,85.369 105.045,85.369 105.045,50.329 
			149.519,34.966 190,34.966 150.058,100 190,165 148.71,165 105.045,150.057 105.045,115.018 119.6,115.018 134.964,149.787 
			149.788,149.787 135.233,110.166 65.154,110.166 50.06,149.518 65.154,149.518 79.979,115.018 94.803,115.018 94.803,150.057 
			50.33,165 9.63,165 49.521,99.983 		"/>
	</g>
	<defs>
			
				<feColorMatrix  type="matrix" values="-1 0 0 0 1  0 -1 0 0 1  0 0 -1 0 1  0 0 0 1 0" color-interpolation-filters="sRGB" result="source"/>
	</defs>
	<mask maskUnits="userSpaceOnUse" x="8.736" y="34.466" width="182.158" height="131.034" id="SVGID_2_">
	
	</mask>
	<g opacity="0.5" mask="url(#SVGID_2_)">
		<polygon points="9.63,34.966 50.869,34.966 94.803,50.06 94.803,84.83 79.979,84.83 64.615,50.06 49.521,50.06 64.615,89.412 
			135.233,89.412 149.519,50.06 134.964,50.06 120.139,85.369 105.045,85.369 105.045,50.329 149.519,34.966 190,34.966 
			150.058,100 190,165 148.71,165 105.045,150.057 105.045,115.018 119.6,115.018 134.964,149.787 149.788,149.787 135.233,110.166 
			65.154,110.166 50.06,149.518 65.154,149.518 79.979,115.018 94.803,115.018 94.803,150.057 50.33,165 9.63,165 49.521,99.983 		
			"/>
		<polygon fill="none" stroke="#000000" points="9.63,34.966 50.869,34.966 94.803,50.06 94.803,84.83 79.979,84.83 64.615,50.06 
			49.521,50.06 64.615,89.412 135.233,89.412 149.519,50.06 134.964,50.06 120.139,85.369 105.045,85.369 105.045,50.329 
			149.519,34.966 190,34.966 150.058,100 190,165 148.71,165 105.045,150.057 105.045,115.018 119.6,115.018 134.964,149.787 
			149.788,149.787 135.233,110.166 65.154,110.166 50.06,149.518 65.154,149.518 79.979,115.018 94.803,115.018 94.803,150.057 
			50.33,165 9.63,165 49.521,99.983 		"/>
	</g>
</g>
</svg>
