<?xml version="1.0" standalone="no"?>
<!DOCTYPE svg PUBLIC "-//W3C//DTD SVG 1.1//EN" "http://www.w3.org/Graphics/SVG/1.1/DTD/svg11.dtd">
<svg width="528px" height="200px" version="1.1" xmlns="http://www.w3.org/2000/svg" xmlns:xlink="http://www.w3.org/1999/xlink" xml:space="preserve" style="fill-rule:evenodd;clip-rule:evenodd;stroke-linecap:round;stroke-linejoin:round;stroke-miterlimit:1.41421;">
    <g>
        <path d="M78.0689,193.383L77.5884,193.607L41.7938,116.848L46.2782,114.757L75.2164,176.813C113.158,162.86 184.198,153.47 265.585,153.47C344.426,153.47 413.558,162.282 453.181,175.85L482.028,114.051L486.511,116.144L457.851,177.542L450.687,192.889L450.274,192.697L450.259,192.727C411.41,179.873 343.202,171.333 265.585,171.333C185.462,171.333 115.366,180.434 78.1809,193.607L78.0689,193.383ZM149.265,118.523L151.987,118.245L156.056,158.038L153.335,158.316L149.265,118.523ZM369.192,116.757L371.914,117.027L367.962,156.832L365.24,156.561L369.192,116.757ZM262.783,92.7759L265.217,92.7759L265.217,152.776L262.783,152.776L262.783,92.7759Z" style="fill:none;stroke-width:3.13px;stroke:white;"/>
    </g>
</svg>
