<?xml version="1.0" standalone="no"?>
<!DOCTYPE svg PUBLIC "-//W3C//DTD SVG 1.1//EN" "http://www.w3.org/Graphics/SVG/1.1/DTD/svg11.dtd">
<svg width="200px" height="200px" version="1.1" xmlns="http://www.w3.org/2000/svg" xmlns:xlink="http://www.w3.org/1999/xlink" xml:space="preserve" style="fill-rule:evenodd;clip-rule:evenodd;stroke-linecap:round;stroke-linejoin:round;stroke-miterlimit:1.41421;">
    <g>
        <g>
            <path d="M100.231,7.14936C151.638,7.14936 193.312,48.8233 193.312,100.231C193.312,151.638 151.638,193.312 100.231,193.312C48.8233,193.312 7.14936,151.638 7.14936,100.231C7.14936,48.8233 48.8233,7.14936 100.231,7.14936Z" style="fill:none;stroke-width:12.5px;stroke:white;"/>
            <path d="M100.231,7.14936C151.638,7.14936 193.312,48.8233 193.312,100.231C193.312,151.638 151.638,193.312 100.231,193.312C48.8233,193.312 7.14936,151.638 7.14936,100.231C7.14936,48.8233 48.8233,7.14936 100.231,7.14936Z" style="fill:rgb(111,111,111);fill-opacity:0.678431;"/>
            <g>
                <path d="M106.086,8.19211C106.086,6.51165 104.723,5.14936 103.043,5.14936L96.9572,5.14936C95.2768,5.14936 93.9145,6.51165 93.9145,8.19211L93.9145,53.621C93.9145,55.3014 95.2768,56.6637 96.9572,56.6637L103.043,56.6637C104.723,56.6637 106.086,55.3014 106.086,53.621L106.086,8.19211Z" style="fill:white;"/>
            </g>
        </g>
    </g>
</svg>
