<svg version="1.1" id="Layer_1" xmlns="http://www.w3.org/2000/svg" xmlns:xlink="http://www.w3.org/1999/xlink" x="0px" y="0px"
	 width="40px" height="600px" viewBox="0 0 40 600" enable-background="new 0 0 40 600" xml:space="preserve">
<pattern  y="600" width="72" height="72" patternUnits="userSpaceOnUse" id="_x31_0_lpi_80_x25_" viewBox="20 -72 72 72" overflow="visible">
	<g>
		<polygon fill="none" points="20,0 20,-72 92,-72 92,0 		"/>
		<line fill="none" stroke="#231F20" stroke-width="5.76" x1="19.75" y1="-3.6" x2="92.25" y2="-3.6"/>
		<line fill="none" stroke="#231F20" stroke-width="5.76" x1="19.75" y1="-18" x2="92.25" y2="-18"/>
		<line fill="none" stroke="#231F20" stroke-width="5.76" x1="19.75" y1="-32.4" x2="92.25" y2="-32.4"/>
		<line fill="none" stroke="#231F20" stroke-width="5.76" x1="19.75" y1="-46.8" x2="92.25" y2="-46.8"/>
		<line fill="none" stroke="#231F20" stroke-width="5.76" x1="19.75" y1="-61.2" x2="92.25" y2="-61.2"/>
		<line fill="none" stroke="#231F20" stroke-width="5.76" x1="0" y1="-61.2" x2="14" y2="-61.2"/>
		<line fill="none" stroke="#231F20" stroke-width="5.76" x1="19.75" y1="-10.8" x2="92.25" y2="-10.8"/>
		<line fill="none" stroke="#231F20" stroke-width="5.76" x1="19.75" y1="-25.2" x2="92.25" y2="-25.2"/>
		<line fill="none" stroke="#231F20" stroke-width="5.76" x1="19.75" y1="-39.6" x2="92.25" y2="-39.6"/>
		<line fill="none" stroke="#231F20" stroke-width="5.76" x1="19.75" y1="-54" x2="92.25" y2="-54"/>
		<line fill="none" stroke="#231F20" stroke-width="5.76" x1="19.75" y1="-68.4" x2="92.25" y2="-68.4"/>
		<line fill="none" stroke="#231F20" stroke-width="5.76" x1="0" y1="-68.4" x2="14" y2="-68.4"/>
	</g>
</pattern>
    <linearGradient id="SVGID_1_" gradientUnits="userSpaceOnUse" x1="20.0005" y1="600" x2="20.0005" y2="4.882812e-04">
	<stop  offset="0" style="stop-color:#001000"/>
	<stop  offset="1" style="stop-color:#ff0000"/>
</linearGradient>
<rect fill="url(#SVGID_1_)"  opacity="1" width="40" height="600"/>
<rect fill="url(#_x31_0_lpi_80_x25_)" opacity=".5" width="40" height="600"/>

</svg>