<?xml version="1.0" encoding="utf-8"?>
<!-- Generator: Adobe Illustrator 14.0.0, SVG Export Plug-In . SVG Version: 6.00 Build 43363)  -->
<!DOCTYPE svg PUBLIC "-//W3C//DTD SVG 1.1//EN" "http://www.w3.org/Graphics/SVG/1.1/DTD/svg11.dtd">
<svg version="1.1" id="Layer_1" xmlns="http://www.w3.org/2000/svg" xmlns:xlink="http://www.w3.org/1999/xlink" x="0px" y="0px"
	 width="403px" height="40px" viewBox="-181.5 280 403 40" enable-background="new -181.5 280 403 40" xml:space="preserve">
<pattern  y="600" width="60.75" height="72" patternUnits="userSpaceOnUse" id="Undulating_Fine_Lines" viewBox="16 -73.25 60.75 72" overflow="visible">
	<g>
		<polygon fill="none" points="16,-1.25 16,-73.25 76.75,-73.25 76.75,-1.25 		"/>
		<line fill="#FFFFFF" x1="0" y1="-7.25" x2="6" y2="-1.25"/>
		<line fill="#FFFFFF" x1="0" y1="-1.25" x2="6" y2="-7.25"/>
		<line fill="none" stroke="#231F20" stroke-width="0.5" stroke-linecap="square" x1="46.375" y1="-73.25" x2="46.375" y2="-1.25"/>
		
			<line fill="none" stroke="#231F20" stroke-width="0.75" stroke-linecap="square" x1="42.578" y1="-73.25" x2="42.578" y2="-1.25"/>
		<line fill="none" stroke="#231F20" stroke-linecap="square" x1="38.781" y1="-73.25" x2="38.781" y2="-1.25"/>
		
			<line fill="none" stroke="#231F20" stroke-width="1.25" stroke-linecap="square" x1="34.984" y1="-73.25" x2="34.984" y2="-1.25"/>
		<line fill="none" stroke="#231F20" stroke-width="1.5" stroke-linecap="square" x1="31.187" y1="-73.25" x2="31.187" y2="-1.25"/>
		<line fill="none" stroke="#231F20" stroke-width="1.75" stroke-linecap="square" x1="27.39" y1="-73.25" x2="27.39" y2="-1.25"/>
		<line fill="none" stroke="#231F20" stroke-width="2" stroke-linecap="square" x1="23.593" y1="-73.25" x2="23.593" y2="-1.25"/>
		
			<line fill="none" stroke="#231F20" stroke-width="2.25" stroke-linecap="square" x1="19.796" y1="-73.25" x2="19.796" y2="-1.25"/>
		<line fill="none" stroke="#231F20" stroke-width="2.5" stroke-linecap="square" x1="16" y1="-73.25" x2="16" y2="-1.25"/>
		
			<line fill="none" stroke="#231F20" stroke-width="0.75" stroke-linecap="square" x1="50.171" y1="-73.25" x2="50.171" y2="-1.25"/>
		<line fill="none" stroke="#231F20" stroke-linecap="square" x1="53.968" y1="-73.25" x2="53.968" y2="-1.25"/>
		
			<line fill="none" stroke="#231F20" stroke-width="1.25" stroke-linecap="square" x1="57.765" y1="-73.25" x2="57.765" y2="-1.25"/>
		<line fill="none" stroke="#231F20" stroke-width="1.5" stroke-linecap="square" x1="61.562" y1="-73.25" x2="61.562" y2="-1.25"/>
		
			<line fill="none" stroke="#231F20" stroke-width="1.75" stroke-linecap="square" x1="65.359" y1="-73.25" x2="65.359" y2="-1.25"/>
		<line fill="none" stroke="#231F20" stroke-width="2" stroke-linecap="square" x1="69.156" y1="-73.25" x2="69.156" y2="-1.25"/>
		
			<line fill="none" stroke="#231F20" stroke-width="2.25" stroke-linecap="square" x1="72.953" y1="-73.25" x2="72.953" y2="-1.25"/>
		<line fill="none" stroke="#231F20" stroke-width="2.5" stroke-linecap="square" x1="76.75" y1="-73.25" x2="76.75" y2="-1.25"/>
		<line fill="none" stroke="#231F20" stroke-width="2.25" stroke-linecap="square" x1="6" y1="-73.25" x2="6" y2="-58.25"/>
	</g>
</pattern>
<linearGradient id="SVGID_1_" gradientUnits="userSpaceOnUse" x1="507.501" y1="203.9985" x2="104.501" y2="203.9986" gradientTransform="matrix(1 0 0 -1 -286 504)">
	<stop  offset="0" style="stop-color:#100000"/>
	<stop  offset="1" style="stop-color:#FF0000"/>
</linearGradient>
<rect x="-181.5" y="280" fill="url(#SVGID_1_)" width="403" height="40"/>
<pattern  id="SVGID_2_" xlink:href="#Undulating_Fine_Lines" patternTransform="matrix(1 0 0 -1 -236 -17641.5)">
</pattern>
<rect x="-181.5" y="280" opacity="0.5" fill="url(#SVGID_2_)" enable-background="new    " width="403" height="40"/>
</svg>
